<?xml version="1.0" encoding="UTF-8"?><svg id="Layer_2" xmlns="http://www.w3.org/2000/svg" viewBox="0 0 856.49 874.41"><defs><style>.cls-1{stroke-width:0px;}</style></defs><g id="logoSimpleWhite"><path class="cls-1" d="m262.08,427.11c3.58-5.38,5.95-10.71,7.08-15.99,1.14-5.28,1.96-12.74,2.47-22.38l1.77-36.76h-34.41l-1.26,26.52c-.59,13.1-1.56,22.26-2.91,27.5-1.35,5.24-4.22,9.42-8.6,12.56-4.39,3.14-9.45,4.7-15.18,4.7,0-1.78-.13-4.82-.38-9.12-.59-9.91-.93-17.49-1.01-22.73l-.25-39.43h-35.17l1.52,50.37c0,34.33,6.94,60,20.81,77.03,13.87,17.03,32.66,25.54,56.36,25.54,18.3,0,33.33-4.21,45.1-12.63,11.76-8.42,20.16-18.38,25.17-29.89,5.02-11.51,8.45-29.32,10.31-53.46l4.43-56.96h-34.92l-3.67,54.58c-1.86,26.47-6.54,44.55-14.04,54.23-7.51,9.68-18.47,14.52-32.89,14.52-8.52,0-16.26-2.6-23.21-7.79-6.96-5.19-11.28-11.62-12.97-19.29,12.06-1.12,21.82-3.58,29.29-7.37,7.46-3.79,12.99-8.37,16.57-13.75Z"/><rect class="cls-1" x="366" y="423.54" width="35.55" height="77.31"/><path class="cls-1" d="m606.43,427.11c3.58-5.38,5.95-10.71,7.08-15.99,1.14-5.28,1.96-12.74,2.47-22.38l1.77-36.76h-34.41l-1.27,26.52c-.59,13.1-1.56,22.26-2.91,27.5-1.35,5.24-4.22,9.42-8.6,12.56-4.39,3.14-9.45,4.7-15.18,4.7,0-1.78-.13-4.82-.38-9.12-.59-9.91-.93-17.49-1.01-22.73l-.25-39.43h-35.17l1.52,50.37c0,34.33,6.94,60,20.81,77.03,13.87,17.03,32.66,25.54,56.36,25.54,18.3,0,33.33-4.21,45.1-12.63,11.76-8.42,20.16-18.38,25.17-29.89,5.02-11.51,8.45-29.32,10.31-53.46l4.43-56.96h-34.92l-3.67,54.58c-1.86,26.47-6.54,44.55-14.04,54.23-7.51,9.68-18.47,14.52-32.89,14.52-8.52,0-16.26-2.6-23.21-7.79-6.96-5.19-11.28-11.62-12.97-19.29,12.06-1.12,21.82-3.58,29.29-7.37,7.46-3.79,12.99-8.37,16.57-13.75Z"/><path class="cls-1" d="m564.02,55.23l-5.27-1.92-3.87,10.63,5.27,1.92c1.71.62,3.25.63,4.64.04,1.39-.6,2.37-1.68,2.94-3.25l.02-.06c.57-1.57.51-3.04-.18-4.4-.69-1.37-1.88-2.35-3.54-2.96Z"/><path class="cls-1" d="m696.63,153.21c1.75-1.86,2.93-3.71,3.54-5.55.61-1.83.66-3.6.16-5.31-.5-1.7-1.53-3.29-3.09-4.75l-3.07-2.89-16.69,17.76,3.07,2.89c1.63,1.53,3.32,2.49,5.06,2.86,1.74.37,3.52.15,5.35-.67,1.83-.82,3.7-2.25,5.63-4.3l.04-.05Z"/><path class="cls-1" d="m426.13,33.16c-1.27-1.07-3.02-1.58-5.24-1.55l-3.8.06.21,13.21,3.8-.06c2.22-.04,3.95-.62,5.19-1.75,1.24-1.13,1.84-2.78,1.81-4.96v-.06c-.04-2.2-.69-3.83-1.97-4.9Z"/><polygon class="cls-1" points="632.25 108.07 639.57 112.87 644.93 96.94 644.72 96.8 632.25 108.07"/><path class="cls-1" d="m315.99,60.83c-.83-2.49-1.9-4.5-3.23-6.06-1.33-1.55-2.82-2.59-4.48-3.12-1.66-.53-3.39-.49-5.19.11-1.76.59-3.15,1.58-4.17,2.99-1.01,1.41-1.59,3.13-1.72,5.17-.13,2.04.21,4.31,1.05,6.82l.02.06c.83,2.49,1.91,4.51,3.24,6.07,1.33,1.56,2.82,2.61,4.47,3.14s3.36.5,5.15-.09c1.84-.61,3.27-1.63,4.26-3.05,1-1.42,1.56-3.16,1.68-5.2.12-2.04-.23-4.3-1.05-6.77l-.02-.06Z"/><path class="cls-1" d="m56.77,364.2c-1.77-1.03-3.94-1.74-6.51-2.12h-.06c-2.59-.39-4.88-.34-6.86.15-1.98.49-3.58,1.35-4.8,2.59-1.22,1.24-1.97,2.8-2.25,4.68-.27,1.84,0,3.53.79,5.07s2.08,2.83,3.83,3.87c1.76,1.04,3.94,1.75,6.56,2.14h.06c2.59.39,4.88.34,6.88-.14,1.99-.49,3.6-1.34,4.82-2.57,1.22-1.23,1.96-2.77,2.24-4.63.28-1.92.02-3.65-.8-5.18-.82-1.53-2.12-2.81-3.89-3.84Z"/><polygon class="cls-1" points="189.7 112.36 196.13 127.89 203.1 122.61 189.9 112.21 189.7 112.36"/><path class="cls-1" d="m98.73,217.63l-.05-.03c-1.42-.88-2.87-1.11-4.35-.71-1.48.4-2.68,1.36-3.62,2.87l-2.95,4.77,9.63,5.94,2.95-4.77c.95-1.55,1.28-3.06.98-4.54-.3-1.48-1.17-2.66-2.59-3.53Z"/><path class="cls-1" d="m818.34,411.51c-1.91-.73-4.18-1.07-6.82-1.02h-.06c-2.62.05-4.87.49-6.76,1.3-1.89.81-3.33,1.92-4.32,3.34-1,1.42-1.47,3.06-1.44,4.94.04,1.94.59,3.6,1.65,4.97,1.06,1.37,2.55,2.42,4.47,3.14s4.17,1.06,6.77,1h.06c2.62-.05,4.87-.49,6.74-1.29,1.87-.81,3.31-1.93,4.31-3.35,1-1.43,1.47-3.09,1.44-4.99-.04-1.86-.58-3.48-1.62-4.87-1.04-1.38-2.52-2.44-4.42-3.17Z"/><path class="cls-1" d="m428.25,0C191.73,0,0,191.73,0,428.25c0,169.02,97.92,315.16,240.12,384.8l.06,54.58c0,4.68.3,6.79,4.98,6.79l112.88-22.21c1.43-.33,2.72-.55,3.83-.84,1.38.21,2.75.43,4.13.63v-110.81h0v-183.21c0-4.68-3.89-4.26-9.26-5.3l-109.55-27.25c-4.68,0-7.4,3.02-7.4,7.7l.18,152.67c-79.27-58.04-130.75-151.77-130.75-257.54,0-176.19,142.83-319.03,319.03-319.03s319.03,142.83,319.03,319.03c0,154.58-109.95,283.44-255.9,312.74v-316.05c0-17.21-2.38-30.7-7.15-40.48-4.77-9.77-12.71-17.91-23.85-24.41-11.13-6.5-26.86-9.75-47.19-9.75-18.72,0-34.96,1.36-48.7,4.07l2.53,31.57c14.42-2.34,27.75-3.51,39.98-3.51,16.36,0,28.61,3.49,36.75,10.45,8.14,6.97,12.21,19.57,12.21,37.81v315.37s-.02,0-.04,0v109.54c223.62-14.26,400.58-200.15,400.58-427.37S664.76,0,428.25,0Zm-166.89,685.38c0-13.09,4.15-23.7,9.27-23.7s9.26,10.61,9.26,23.7c0,10.09-2.47,18.7-5.94,22.12-3.38-1.87-6.73-3.79-10.03-5.78-1.58-4.25-2.56-10.01-2.56-16.34ZM295.86,27.01l10.01-3.33-4.19,13.82-7.7,2.56,1.87-13.05ZM65.48,435.82c-1.91,3.36-4.65,5.93-8.21,7.7-3.56,1.77-7.85,2.62-12.88,2.53h-.03c-5.03-.08-9.29-1.07-12.77-2.96-3.49-1.9-6.13-4.55-7.92-7.97-1.79-3.42-2.65-7.46-2.58-12.1.07-4.25.96-7.95,2.68-11.1,1.72-3.15,4.03-5.59,6.92-7.32,2.89-1.73,6.13-2.56,9.72-2.5h.29s-.21,12.87-.21,12.87l-.38.03c-1.52.1-2.89.49-4.09,1.15s-2.16,1.59-2.87,2.77c-.71,1.18-1.07,2.61-1.1,4.28-.03,1.84.44,3.44,1.41,4.79.97,1.36,2.39,2.42,4.26,3.18,1.87.76,4.14,1.16,6.83,1.2h.03c2.7.04,5.02-.28,6.94-.98,1.92-.7,3.39-1.71,4.41-3.05,1.02-1.33,1.54-2.92,1.57-4.76.02-1.54-.28-2.92-.92-4.14s-1.54-2.2-2.73-2.96c-1.18-.76-2.57-1.23-4.18-1.4l-.35-.04.21-12.87h.35c3.57.06,6.77,1.02,9.59,2.87,2.82,1.85,5.04,4.39,6.66,7.6,1.62,3.22,2.39,6.93,2.32,11.13-.08,4.67-1.07,8.68-2.98,12.04Zm6.83-61c-.69,4.66-2.23,8.56-4.62,11.68-2.4,3.13-5.48,5.36-9.27,6.69-3.79,1.33-8.08,1.64-12.89.93h-.06c-4.81-.72-8.82-2.26-12.05-4.64-3.23-2.38-5.53-5.41-6.92-9.1-1.39-3.69-1.74-7.85-1.05-12.49.69-4.68,2.24-8.59,4.65-11.73s5.49-5.37,9.26-6.71c3.76-1.33,8.05-1.65,12.86-.94h.06c4.81.72,8.83,2.26,12.05,4.62,3.23,2.37,5.54,5.39,6.94,9.08,1.4,3.69,1.75,7.88,1.06,12.59Zm12.47-57.68l-27.39,8.95-.06.21,22.81,6.69-3.78,12.9-43.89-12.86,3.15-10.74,26.99-8.93.06-.21-22.45-6.58,3.78-12.9,43.89,12.86-3.11,10.62Zm15.36-37.22c-1.98,4.42-4.52,7.82-7.61,10.2-3.1,2.39-6.63,3.7-10.6,3.93-3.97.23-8.27-.69-12.9-2.76h-.03c-4.57-2.06-8.09-4.64-10.55-7.75-2.46-3.11-3.84-6.59-4.14-10.44-.3-3.85.51-7.92,2.43-12.2,1.56-3.49,3.6-6.35,6.1-8.57,2.5-2.22,5.23-3.71,8.18-4.46s5.88-.64,8.77.34l.3.1-5.41,12.06-.33-.04c-1.58-.2-3.04.14-4.38,1.02-1.34.88-2.41,2.21-3.21,3.98-.78,1.73-1.01,3.41-.7,5.04s1.17,3.14,2.58,4.56c1.4,1.42,3.34,2.68,5.81,3.78h.03c2.53,1.15,4.83,1.74,6.91,1.79,2.08.05,3.88-.38,5.39-1.3,1.51-.92,2.67-2.28,3.47-4.07.6-1.33.92-2.6.96-3.81.04-1.21-.19-2.31-.69-3.3-.51-.99-1.28-1.8-2.32-2.43l-.41-.25-3.27,7.29-8.44-3.79,8.56-19.09,5.64,2.53c3.82,1.71,6.77,3.95,8.85,6.73,2.08,2.77,3.22,5.94,3.42,9.49.2,3.55-.6,7.35-2.42,11.4Zm24.22-46.48l-16.58-1.74c-.04.07-.09.15-.15.24-.06.09-.11.18-.17.27l-2,3.24,12.78,7.89-7.06,11.44-38.92-24.02,10.82-17.53c2.06-3.34,4.32-5.85,6.76-7.51,2.44-1.66,5.01-2.47,7.73-2.44,2.71.03,5.5.94,8.38,2.71l.05.03c2.43,1.5,4.3,3.44,5.6,5.82,1.31,2.38,1.84,4.8,1.59,7.26l19.04,1.55-7.89,12.78Zm11.16-16.92l-35.83-28.42,20.05-25.28,8.34,6.62-11.7,14.75,5.71,4.53,10.97-13.83,7.75,6.14-10.97,13.83,5.69,4.51,11.7-14.75,8.34,6.62-20.05,25.28Zm47.4-55.55c-1.1,3.38-3.24,6.63-6.4,9.74-3.45,3.39-7.05,5.64-10.8,6.74-3.75,1.1-7.52,1.04-11.31-.19-3.79-1.22-7.46-3.64-11.01-7.26l-.02-.02c-3.51-3.57-5.85-7.25-7.02-11.04-1.17-3.79-1.19-7.53-.07-11.23,1.12-3.7,3.35-7.19,6.69-10.48,2.73-2.68,5.66-4.61,8.8-5.77s6.22-1.56,9.24-1.18c3.02.38,5.71,1.54,8.05,3.5l.24.2-9.42,9.27-.29-.16c-1.4-.76-2.88-.97-4.45-.64-1.57.33-3.05,1.18-4.44,2.54-1.36,1.33-2.18,2.81-2.48,4.44-.3,1.63-.05,3.35.74,5.18s2.14,3.71,4.03,5.63l.02.02c1.94,1.97,3.87,3.36,5.79,4.17,1.92.81,3.75,1.06,5.5.75,1.74-.31,3.31-1.15,4.71-2.53,1.04-1.02,1.8-2.09,2.28-3.2s.66-2.22.55-3.32c-.11-1.11-.54-2.14-1.28-3.1l-.29-.38-5.69,5.6-6.49-6.6,14.91-14.67,4.33,4.4c2.94,2.98,4.87,6.14,5.8,9.48.93,3.34.84,6.7-.26,10.08Zm35.27-26.48l-7.38-5.82-10.92,8.26,3.59,8.69-11.27,8.53-15.7-45.48,7.77-5.88,5.67-4.29,39.5,27.46-11.27,8.53Zm43.65-36.79c-.15,3.37-1.19,6.58-3.13,9.61-1.94,3.04-4.73,5.6-8.38,7.69-4.05,2.32-8.01,3.52-11.88,3.59-3.87.07-7.47-.97-10.81-3.12s-6.26-5.41-8.76-9.78l-.02-.03c-2.5-4.36-3.83-8.53-3.98-12.5-.15-3.97.78-7.59,2.81-10.88s5.05-6.09,9.09-8.4c3.69-2.11,7.32-3.23,10.91-3.37,3.59-.13,6.87.6,9.83,2.2,2.96,1.6,5.34,3.96,7.12,7.08l.14.25-11.17,6.4-.22-.31c-.87-1.26-1.89-2.23-3.08-2.93-1.19-.69-2.47-1.04-3.85-1.04-1.38,0-2.79.41-4.24,1.24-1.59.91-2.73,2.13-3.4,3.66-.67,1.53-.85,3.29-.55,5.28.3,1.99,1.12,4.16,2.45,6.48l.02.03c1.34,2.35,2.81,4.17,4.39,5.46,1.58,1.3,3.21,2.04,4.88,2.23,1.67.19,3.3-.17,4.89-1.09,1.34-.77,2.37-1.73,3.09-2.9s1.1-2.45,1.15-3.86c.05-1.4-.26-2.84-.93-4.31l-.15-.32,11.17-6.4.17.3c1.77,3.1,2.59,6.33,2.44,9.71Zm12.63,3.74l-18.75-41.72,12.26-5.51,18.75,41.72-12.26,5.51Zm55.86-32.03c-.66,3.95-2.32,7.38-4.98,10.29s-6.25,5.12-10.76,6.62c-4.47,1.49-8.64,1.87-12.51,1.14-3.87-.73-7.25-2.48-10.15-5.26s-5.11-6.47-6.64-11.08l-.02-.06c-1.53-4.61-1.97-8.89-1.3-12.84.67-3.95,2.33-7.38,5-10.28,2.66-2.9,6.22-5.09,10.67-6.57,4.49-1.49,8.68-1.87,12.56-1.14,3.88.73,7.27,2.48,10.16,5.24,2.89,2.76,5.1,6.44,6.63,11.05l.02.06c1.53,4.61,1.97,8.89,1.31,12.84Zm41.37,2.04l-20.33-20.42-.22.04,4.31,23.38-13.22,2.44-8.3-44.98,11-2.03,20.14,20.07.22-.04-4.24-23,13.22-2.44,8.3,44.98-10.88,2.01Zm67.98-24.74c-1.39,2.5-3.37,4.43-5.96,5.82-2.59,1.38-5.67,2.1-9.24,2.16l-7,.11.2,12.49-13.44.22-.74-45.73,13.44-.22h0s7-.11,7-.11c3.57-.06,6.67.58,9.3,1.91,2.63,1.33,4.68,3.23,6.15,5.7,1.47,2.47,2.23,5.4,2.28,8.78v.06c.06,3.38-.61,6.32-2,8.81Zm50.14,8.63c-.38,3.42-1.53,6.32-3.47,8.69s-4.49,4.09-7.65,5.17c-3.16,1.08-6.76,1.39-10.82.95-3.99-.44-7.41-1.52-10.26-3.25-2.85-1.73-4.97-3.96-6.36-6.69-1.39-2.74-1.9-5.82-1.52-9.27l3.21-29.27,13.36,1.46-3.06,27.95c-.26,2.39.11,4.29,1.11,5.7,1,1.41,2.59,2.23,4.75,2.47,2.18.24,3.91-.22,5.19-1.38,1.27-1.16,2.04-2.93,2.31-5.33l3.06-27.95,13.36,1.46-3.21,29.27Zm39.87,7.36l-17.19-4.03-1.66,7.07,18.33,4.3-2.43,10.37-31.41-7.37,10.45-44.52,31.41,7.37-2.43,10.37-18.33-4.3-1.67,7.1,17.19,4.03-2.26,9.63Zm50.91,4.66l-.02.06c-.98,2.68-2.5,4.9-4.57,6.67-2.07,1.76-4.33,2.77-6.79,3.03l2.34,18.96-14.12-5.14-1.65-16.59c-.08-.03-.17-.06-.27-.1-.1-.04-.2-.07-.3-.11l-3.57-1.3-5.14,14.12-12.63-4.6,15.65-42.97,19.36,7.05c3.69,1.34,6.6,3.04,8.72,5.1,2.12,2.05,3.44,4.41,3.95,7.07.51,2.66.19,5.58-.96,8.76Zm4.85,35.71l15.9-31.28-10.74-5.46,4.82-9.49,33.45,17-4.82,9.49-10.74-5.46-15.9,31.28-11.98-6.09Zm59.83,35.74l-11.82-7.75,3-8.91-11.45-7.51-6.97,6.3-11.82-7.75,37.56-30.06,10.2,6.69,3.9,2.56-12.59,46.43Zm39.89,31.77c-3.65-.92-7.16-2.96-10.53-6.13l-14.25-13.39,31.31-33.33,14.25,13.39c3.37,3.17,5.67,6.5,6.89,10s1.33,7.06.31,10.69c-1.02,3.63-3.19,7.22-6.54,10.78l-.04.05c-3.34,3.56-6.83,6-10.48,7.33-3.64,1.33-7.29,1.54-10.93.62Zm9.65,13.78l35.1-29.32,20.69,24.76-8.17,6.83-12.07-14.45-5.59,4.67,11.32,13.55-7.59,6.34-11.32-13.55-5.57,4.65,12.07,14.45-8.17,6.83-20.69-24.76Zm51.45,51.01l-8.85,5.92-17.43-26.09,38.03-25.41,7.47,11.17-29.17,19.49,9.97,14.92Zm9.68,43.6c-1.94-4.25-2.77-8.3-2.49-12.16.28-3.86,1.64-7.35,4.09-10.48,2.45-3.13,5.96-5.74,10.53-7.83h.03c4.57-2.11,8.84-3.05,12.81-2.84s7.49,1.47,10.58,3.78c3.09,2.31,5.6,5.58,7.54,9.81,1.77,3.86,2.55,7.59,2.36,11.17-.2,3.59-1.23,6.78-3.09,9.59-1.87,2.8-4.43,4.95-7.7,6.45l-.26.12-5.35-11.7.33-.19c1.33-.75,2.4-1.68,3.2-2.8s1.26-2.37,1.39-3.74-.16-2.82-.85-4.33c-.76-1.67-1.88-2.91-3.34-3.72-1.46-.81-3.2-1.15-5.21-1.03-2.01.12-4.24.74-6.68,1.85h-.03c-2.46,1.14-4.41,2.43-5.84,3.89-1.44,1.46-2.32,3.01-2.66,4.65-.34,1.64-.13,3.3.64,4.97.64,1.4,1.51,2.52,2.61,3.34,1.1.82,2.34,1.32,3.73,1.5,1.39.18,2.85,0,4.37-.54l.33-.12,5.35,11.7-.32.14c-3.25,1.49-6.54,2-9.89,1.54-3.35-.46-6.44-1.79-9.29-4s-5.14-5.22-6.89-9.05Zm11.29,25.27l43.25-14.86,4.37,12.71-43.25,14.86-4.37-12.71Zm6.97,20.08l44.37-11.11,7.83,31.3-10.33,2.59-4.57-18.26-7.07,1.77,4.29,17.13-9.59,2.4-4.29-17.13-7.04,1.76,4.57,18.26-10.33,2.59-7.84-31.3Zm9.21,38.7l45.3-6.27,1.84,13.31-34.75,4.81,2.46,17.77-10.55,1.46-4.3-31.08Zm41.31,76.8c-3.49,1.94-7.66,2.96-12.52,3.06h-.06c-4.86.1-9.08-.75-12.65-2.55-3.58-1.8-6.36-4.4-8.35-7.8-1.99-3.4-3.04-7.48-3.13-12.24-.1-4.71.78-8.81,2.62-12.29s4.52-6.19,8.03-8.14c3.51-1.94,7.7-2.96,12.55-3.06h.06c4.86-.1,9.08.75,12.65,2.56,3.58,1.81,6.36,4.41,8.34,7.82s3.02,7.45,3.12,12.14c.1,4.73-.78,8.84-2.63,12.34-1.85,3.49-4.52,6.21-8.01,8.15Z"/></g></svg>